<svg width="49" height="35" viewBox="0 0 49 35" fill="none" xmlns="http://www.w3.org/2000/svg">
<g filter="url(#filter0_d_993_510)">
<path d="M44.1506 12.2822C43.5751 12.2864 43.005 12.3962 42.4678 12.6064L36.7275 7.82167C36.8687 7.30005 36.9692 6.75894 36.9692 6.18858C36.9692 2.81028 34.3026 0.0949707 30.9848 0.0949707C27.667 0.0949707 25.0003 2.81028 25.0003 6.18858C25.0003 7.15381 25.2397 8.05323 25.6275 8.86246L18.664 17.2424C18.3852 17.1893 18.1025 17.1607 17.819 17.1571C17.3905 17.1571 16.9859 17.2302 16.5934 17.3374L10.4581 11.0903C10.5658 10.693 10.6376 10.281 10.6376 9.84475C10.6376 7.14406 8.50238 4.96986 5.85006 4.96986C3.19775 4.96986 1.0625 7.14406 1.0625 9.84475C1.0625 12.5454 3.19775 14.7196 5.85006 14.7196C6.27855 14.7196 6.6831 14.6465 7.07568 14.5393L13.2109 20.7864C13.0959 21.1914 13.0355 21.6104 13.0314 22.032C13.0314 24.7327 15.1667 26.9069 17.819 26.9069C20.4713 26.9069 22.6065 24.7327 22.6065 22.032C22.6065 21.4543 22.4916 20.9107 22.3121 20.3964L29.2852 12.0068C29.8286 12.1676 30.3911 12.2822 30.9848 12.2822C31.9295 12.2769 32.8593 12.0421 33.6969 11.5973L39.4396 16.382C39.3946 16.638 39.369 16.8971 39.363 17.1571C39.363 19.8578 41.4983 22.032 44.1506 22.032C46.8029 22.032 48.9381 19.8578 48.9381 17.1571C48.9381 14.4564 46.8029 12.2822 44.1506 12.2822Z" fill="#0D5C63"/>
</g>
<defs>
<filter id="filter0_d_993_510" x="-3" y="0" width="56" height="35.0967" filterUnits="userSpaceOnUse" color-interpolation-filters="sRGB">
<feFlood flood-opacity="0" result="BackgroundImageFix"/>
<feColorMatrix in="SourceAlpha" type="matrix" values="0 0 0 0 0 0 0 0 0 0 0 0 0 0 0 0 0 0 127 0" result="hardAlpha"/>
<feOffset dy="4"/>
<feGaussianBlur stdDeviation="2"/>
<feComposite in2="hardAlpha" operator="out"/>
<feColorMatrix type="matrix" values="0 0 0 0 0 0 0 0 0 0 0 0 0 0 0 0 0 0 0.25 0"/>
<feBlend mode="normal" in2="BackgroundImageFix" result="effect1_dropShadow_993_510"/>
<feBlend mode="normal" in="SourceGraphic" in2="effect1_dropShadow_993_510" result="shape"/>
</filter>
</defs>
</svg>
