<svg width="48" height="45" viewBox="0 0 48 45" fill="none" xmlns="http://www.w3.org/2000/svg">
<g clip-path="url(#clip0_993_496)">
<path d="M23.8406 20.8022C28.1448 20.8022 31.4925 17.3069 31.4925 13.0171C31.4925 8.72735 27.9854 5.39087 23.6812 5.39087C19.377 5.39087 16.0293 8.88623 16.0293 13.0171C16.0293 17.3069 19.5364 20.8022 23.8406 20.8022ZM23.6812 8.56847C23.8406 8.56847 23.8406 8.56847 23.6812 8.56847C26.2318 8.56847 28.3042 10.6339 28.3042 13.176C28.3042 15.7181 26.2318 17.6246 23.6812 17.6246C21.1306 17.6246 19.2176 15.5592 19.2176 13.176C19.2176 10.6339 21.29 8.56847 23.6812 8.56847Z" fill="#0D5C63"/>
<path d="M47.4335 19.8487C44.4046 17.1477 40.4193 15.7178 36.2745 15.8767H34.9992C34.6804 17.1477 34.2021 18.2599 33.5645 19.2132C34.5209 19.0543 35.318 19.0543 36.2745 19.0543C39.3034 18.8954 42.3323 19.8487 44.7235 21.5964V33.0357H47.9118V20.3253L47.4335 19.8487Z" fill="#0D5C63"/>
<path d="M32.6088 5.70826C33.4058 3.8017 35.6376 2.84842 37.71 3.64282C39.623 4.43722 40.5795 6.66154 39.7824 8.72697C39.1448 10.1569 37.71 11.1102 36.2753 11.1102C35.9565 11.1102 35.4782 11.1102 35.1594 10.9513C35.3188 11.7457 35.3188 12.5401 35.3188 13.1756V14.1289C35.6376 14.1289 35.9565 14.2878 36.2753 14.2878C40.2607 14.2878 43.449 11.1102 43.449 7.29706C43.449 3.32506 40.2607 0.147461 36.4347 0.147461C33.8841 0.147461 31.6523 1.4185 30.377 3.64282C31.174 4.11946 31.9711 4.75498 32.6088 5.70826Z" fill="#0D5C63"/>
<path d="M14.4352 19.3721C13.7975 18.4189 13.3193 17.3067 13.0005 16.0357H11.7252C7.58037 15.8768 3.59501 17.3067 0.566134 19.8488L0.0878906 20.3254V33.0358H3.27618V21.5965C5.82681 19.8488 8.69628 18.8955 11.7252 19.0544C12.6816 19.0544 13.6381 19.2133 14.4352 19.3721Z" fill="#0D5C63"/>
<path d="M11.7246 14.1293C12.0435 14.1293 12.3623 14.1293 12.6811 13.9704V13.0171C12.6811 12.2227 12.6811 11.4283 12.8405 10.7928C12.5217 10.9517 12.0435 10.9517 11.7246 10.9517C9.65225 10.9517 7.89869 9.204 7.89869 7.13856C7.89869 5.07312 9.65225 3.32544 11.7246 3.32544C13.3188 3.32544 14.7535 4.27872 15.3912 5.70864C16.0288 4.91424 16.9853 4.11984 17.7824 3.48432C15.71 0.147841 11.4058 -0.964319 8.0581 1.10112C4.7104 3.16656 3.59449 7.45632 5.66688 10.7928C6.9422 12.8582 9.174 14.1293 11.7246 14.1293Z" fill="#0D5C63"/>
<path d="M36.9128 29.3815L36.594 28.9049C33.4057 25.4095 28.9421 23.3441 24.1596 23.5029C19.3772 23.3441 14.7542 25.4095 11.5659 28.9049L11.2471 29.3815V41.4564C11.2471 42.8863 12.363 44.1573 13.9571 44.1573H34.3622C35.7969 44.1573 37.0722 42.8863 37.0722 41.4564V29.3815H36.9128ZM33.7245 40.9797H14.4354V30.4936C16.986 27.9516 20.4931 26.6805 24.1596 26.6805C27.6668 26.5217 31.1739 27.9516 33.7245 30.4936V40.9797Z" fill="#0D5C63"/>
</g>
<defs>
<clipPath id="clip0_993_496">
<rect width="48" height="44.2105" fill="white"/>
</clipPath>
</defs>
</svg>
