<svg width="24" height="26" viewBox="0 0 24 26" fill="none" xmlns="http://www.w3.org/2000/svg">
<path d="M23.71 1.21626C23.575 1.07656 23.4045 0.979837 23.2185 0.937463C23.0325 0.89509 22.8388 0.908827 22.66 0.97706L0.660001 9.29706C0.470269 9.3719 0.306921 9.50501 0.191652 9.67869C0.0763829 9.85238 0.0146484 10.0584 0.0146484 10.2695C0.0146484 10.4805 0.0763829 10.6865 0.191652 10.8602C0.306921 11.0339 0.470269 11.167 0.660001 11.2419L10.26 15.2355L14.1 25.2195C14.1721 25.4081 14.2958 25.5707 14.4557 25.6871C14.6157 25.8035 14.8049 25.8687 15 25.8747C15.2021 25.8703 15.3982 25.8025 15.5624 25.6799C15.7266 25.5574 15.8513 25.386 15.92 25.1883L23.92 2.30826C23.9881 2.12426 24.0046 1.92391 23.9674 1.73056C23.9302 1.53722 23.8409 1.35885 23.71 1.21626ZM15 21.9227L12.21 14.6427L17 9.66106L15.59 8.19466L10.76 13.2179L3.8 10.2747L21.33 3.69146L15 21.9227Z" fill="#8EC2F2"/>
</svg>
