<svg width="24" height="20" viewBox="0 0 24 20" fill="none" xmlns="http://www.w3.org/2000/svg">
<path d="M24.0004 2.46545C23.1188 2.85138 22.1594 3.12914 21.1711 3.23732C22.1971 2.61876 22.9655 1.64153 23.332 0.488976C22.3692 1.07019 21.3145 1.47775 20.2146 1.69357C19.7549 1.19485 19.1989 0.797551 18.5813 0.526422C17.9636 0.255294 17.2976 0.116149 16.6247 0.117657C13.902 0.117657 11.7123 2.35727 11.7123 5.10561C11.7123 5.49155 11.7584 5.87749 11.8333 6.24881C7.7565 6.03245 4.12048 4.05598 1.7032 1.02987C1.26274 1.79332 1.03193 2.66258 1.03477 3.54724C1.03477 5.27811 1.902 6.80432 3.22444 7.70192C2.44511 7.67077 1.68402 7.45339 1.00308 7.06746V7.12886C1.00308 9.55267 2.69143 11.5613 4.94161 12.0233C4.51912 12.1346 4.08449 12.1916 3.64797 12.1928C3.32817 12.1928 3.02565 12.1607 2.72024 12.1168C3.34257 14.0933 5.15482 15.5289 7.3128 15.5756C5.62444 16.9176 3.50968 17.7071 1.2134 17.7071C0.801397 17.7071 0.421085 17.6924 0.0263672 17.6457C2.20452 19.0637 4.78891 19.8824 7.5721 19.8824C16.6074 19.8824 21.5514 12.2864 21.5514 5.69329C21.5514 5.47693 21.5514 5.26057 21.537 5.04421C22.4936 4.33374 23.332 3.45368 24.0004 2.46545Z" fill="#21A6DF"/>
</svg>
