<svg width="24" height="18" viewBox="0 0 24 18" fill="none" xmlns="http://www.w3.org/2000/svg">
<path d="M23.4699 2.93172C23.3335 2.39875 23.0663 1.91282 22.6951 1.52254C22.324 1.13227 21.8619 0.851344 21.355 0.707888C19.4884 0.176689 11.9879 0.176689 11.9879 0.176689C11.9879 0.176689 4.48729 0.176689 2.62071 0.707888C2.11385 0.851344 1.65172 1.13227 1.28057 1.52254C0.90941 1.91282 0.642248 2.39875 0.50582 2.93172C0.157288 4.9334 -0.0118455 6.96506 0.000644257 8.99998C-0.0118455 11.0349 0.157288 13.0666 0.50582 15.0682C0.642248 15.6012 0.90941 16.0871 1.28057 16.4774C1.65172 16.8677 2.11385 17.1486 2.62071 17.2921C4.48729 17.8233 11.9879 17.8233 11.9879 17.8233C11.9879 17.8233 19.4884 17.8233 21.355 17.2921C21.8619 17.1486 22.324 16.8677 22.6951 16.4774C23.0663 16.0871 23.3335 15.6012 23.4699 15.0682C23.8184 13.0666 23.9876 11.0349 23.9751 8.99998C23.9876 6.96506 23.8184 4.9334 23.4699 2.93172ZM9.59041 12.7814V5.21857L15.8152 8.99998L9.59041 12.7814Z" fill="#E42F08"/>
</svg>
